<svg id="Layer_1" data-name="Layer 1" xmlns="http://www.w3.org/2000/svg" viewBox="0 0 2084.62 694.47"><defs><style>.cls-1{fill:#fff;}.cls-2{fill:#231f20;}.cls-3{fill:#34bba4;}</style></defs><path class="cls-1" d="M778,420.44,778,301.84l-48.41,0,0-25.42,129-.09,0,25.42-48.41,0,.09,118.59Z"/><path class="cls-1" d="M891.41,420.36l-.1-144,106.25-.07,0,23.84-74.79.05.07,96.32,75.87-.05,0,23.84Zm19.08-61.49,0-23.84,76.72,0,0,23.84Z"/><path class="cls-1" d="M1106.45,422q-24.93,0-42.6-7.53a55.25,55.25,0,0,1-27-23.82q-9.33-16.28-9.35-42.17,0-24.69,9.47-41.15a59.42,59.42,0,0,1,27.39-24.71q17.91-8.24,43.56-8.26a169.15,169.15,0,0,1,16.94.84,121.61,121.61,0,0,1,16,2.65v25.29q-7.38-1.56-14.82-2.41a135.32,135.32,0,0,0-15.43-.83q-16.69,0-27.65,4.92a32.75,32.75,0,0,0-16.32,15.56q-5.39,10.65-5.37,27.84,0,17.65,5.41,28.31a31.75,31.75,0,0,0,16.1,15.29q10.71,4.67,26.69,4.64a101.83,101.83,0,0,0,15.67-1.22,127.61,127.61,0,0,0,15.79-3.52v25.54a110.73,110.73,0,0,1-16.27,3.46A129.88,129.88,0,0,1,1106.45,422Z"/><path class="cls-1" d="M1177.36,420.16l-.1-144,31.7,0,74.26,105.59h-5.08l-.08-105.64,29.77,0,.1,144-31.7,0-74.14-105.6h5l.07,105.64Z"/><path class="cls-1" d="M1356.82,420l-.1-144,32.19,0,.1,144Z"/><path class="cls-1" d="M1473.23,421.76a161.74,161.74,0,0,1-22-1.49,135.25,135.25,0,0,1-20-4.16l0-25.17q6.78,1.92,14.22,3.31c5,.93,9.81,1.63,14.52,2.11a130.42,130.42,0,0,0,13.13.72q11.15,0,17.67-2.07c4.36-1.38,7.48-3.37,9.37-6a17.47,17.47,0,0,0,.9-17.55q-1.93-3.31-7.14-5.8a70.27,70.27,0,0,0-14.65-4.53l-9.56-1.93q-21.78-4.81-32-14.92t-10.18-26.43a39.62,39.62,0,0,1,6.64-22.7q6.64-9.87,20.74-15.44t36.36-5.59a165.52,165.52,0,0,1,18.52,1,131.49,131.49,0,0,1,16.58,2.83l0,25.05a139.19,139.19,0,0,0-16.83-3.13A142.53,142.53,0,0,0,1492,298.8q-12.72,0-19.91,2.13t-10.22,6a14.32,14.32,0,0,0-3,9.08q0,7.14,4.42,11.07t17.62,7.07l9.56,1.92q15.36,3.27,25,8.64t14.23,13.48q4.54,8.12,4.55,19.48a39.7,39.7,0,0,1-6.76,23q-6.77,9.93-20.32,15.5T1473.23,421.76Z"/><path class="cls-1" d="M1573,419.88l-.11-144,32.19,0,0,56.88,64.38-.05,0-56.87,32.19,0,.1,144-32.19,0,0-60.38-64.38,0,0,60.39Z"/><path class="cls-1" d="M1750.59,419.75l-.1-144,106.25-.07v23.83l-74.78.06.07,96.32,75.87-.05,0,23.84Zm19.08-61.48,0-23.84,76.72-.06,0,23.84Z"/><circle class="cls-1" cx="380.12" cy="337.02" r="267.91"/><path class="cls-2" d="M407.08,496.2c-1.16,8.42-67.22,21.31-126.8-6.89-74.49-35.27-93.95-113.5-95-118-1.87-8.09-18.44-85.49,32.27-145.79,9.38-11.15,35.61-41.59,80-49.05,4.78-.8,77.13-11.93,111.34,38,16.34,23.84,21,57.79,10.38,85.63-18.59,48.85-64,46.34-75.4,93.41-6.44,26.54,2.94,57.19,19.91,75.83C383.06,490.6,407.8,491,407.08,496.2Z"/><path class="cls-3" d="M474.25,237.85c7.29-7.8,58.25,13.89,82.85,58.8A125.69,125.69,0,0,1,570.31,337c1.84,12,9,58.48-21.87,92.34-5.05,5.55-24.33,26.61-55.35,27.91-7,.29-38.6.53-57.61-24.56-12.33-16.27-17.55-40.46-9.08-59.51,12.27-27.58,43.35-22.11,56.77-52.22,6.95-15.58,3.92-33.2,2.63-42.34C482.05,252.12,470.28,242.1,474.25,237.85Z"/></svg>