<svg id="Layer_3" data-name="Layer 3" xmlns="http://www.w3.org/2000/svg" viewBox="0 0 1598.44 1598.44"><defs><style>.cls-1{fill:#fffcf5;}.cls-2{fill:#272727;}</style></defs><path class="cls-1" d="M799.22,58.39,113.43,1057.05l685.79,482.66L1485,1057.05Zm0,1444.63"/><path class="cls-2" d="M799.22,58.39,113.43,1057.05l685.79,482.66L1485,1057.05ZM154.94,1049.58l644.28-938.2,644.28,938.2L799.22,1503Z"/><path class="cls-2" d="M799.22,146.71l-616.6,897.9,616.6,434,616.6-434ZM210.3,1039.63,799.22,182l588.92,857.59L799.22,1454.11Z"/><path class="cls-2" d="M293.65,1062.11,344,990.53l-8.18-5.76-50.38,71.57L265,1041.94,380.08,878.43l20.46,14.4-50.3,71.47,8.19,5.77,50.3-71.48L429.19,913,314.11,1076.51Z"/><path class="cls-2" d="M407.13,1142l14.4-20.47-8.19-5.76-14.4,20.47-20.46-14.4,97.86-139.06a28.8,28.8,0,0,1,19.35-12.21,29.16,29.16,0,0,1,22.42,5l24.56,17.29L427.59,1156.37ZM507.87,998.82l-4.09-2.88q-4.09-2.88-7,1.21l-69.06,98.13,8.18,5.76Z"/><path class="cls-2" d="M558.34,1211.67a30,30,0,1,1-49.12-34.56l80.59-114.5a28.78,28.78,0,0,1,19.34-12.22,29.22,29.22,0,0,1,22.43,5,30.22,30.22,0,0,1,7.34,41.74l-14.4,20.47-20.46-14.41,14.34-20.38q2.86-4.08-1.22-6.95c-2.73-1.93-5.06-1.52-7,1.2l-80.52,114.41q-2.88,4.1,1.21,7t7-1.21l14.41-20.47,20.46,14.41Z"/><path class="cls-2" d="M631,1299.52l47.5-67.48q2.88-4.1-5.31-9.86l-50.37,71.58-20.47-14.4,115.08-163.52,20.47,14.4-50.31,71.48,4.1,2.88q4.1,2.88,7-1.21L746.06,1136l20.47,14.4L722,1213.7a23.45,23.45,0,0,1-13.42,9.51,18.09,18.09,0,0,1-16-2.57,18.26,18.26,0,0,1,7.87,14,23.41,23.41,0,0,1-4.43,15.84l-44.61,63.39Z"/><path class="cls-2" d="M916.13,1228.62l50.37,71.57L946,1314.6,831,1151.08l49.11-34.56L894.48,1137l-28.66,20.16,35.91,51L930.38,1188l14.4,20.47Z"/><path class="cls-2" d="M1057.46,1236.18,1010,1168.7q-2.88-4.1-11.07,1.67l50.37,71.57-20.46,14.4L913.73,1092.83l24.56-17.28a30.22,30.22,0,0,1,41.77,7.17l27.33,38.83a23.5,23.5,0,0,1,4.43,15.84,18.12,18.12,0,0,1-7.81,14.15,18.3,18.3,0,0,1,15.89-2.67,23.49,23.49,0,0,1,13.41,9.52l44.61,63.39Zm-97.87-139.06q-2.88-4.08-7-1.21l-4.09,2.88,36,51.11,4.09-2.88q4.1-2.88,1.21-7Z"/><path class="cls-2" d="M1146.51,1136.79a30,30,0,1,1-49.11,34.56l-80.59-114.5a28.79,28.79,0,0,1-5-22.33,29.22,29.22,0,0,1,12.31-19.41,30.24,30.24,0,0,1,41.78,7.18Zm-101-100q-2.88-4.1-7-1.21t-1.22,7l80.52,114.4q2.88,4.1,7,1.21t1.22-7Z"/><path class="cls-2" d="M1232.39,1076.34a30,30,0,1,1-49.11,34.57l-14.41-20.46,20.47-14.41,14.4,20.47q2.88,4.1,7,1.21t1.22-7l-30.21-42.93q-2.88-4.1-7-1.21a30,30,0,0,1-41.84-7.27l-30.21-42.93a28.84,28.84,0,0,1-5-22.33A29.22,29.22,0,0,1,1110,954.67a30.23,30.23,0,0,1,41.78,7.17l14.4,20.47-20.47,14.4-14.34-20.38q-2.87-4.08-7-1.2t-1.22,7l30.15,42.84q2.88,4.08,7,1.21a30.43,30.43,0,0,1,41.84,7.27Z"/><path class="cls-2" d="M1217.5,909.64l100.68,143.05-20.46,14.4L1197,924l-14.38,10.11-14.4-20.46,49.12-34.57,14.4,20.47Z"/><path class="cls-2" d="M575.64,623.94h72.6l60.6,102v-102h72.6V1119.1l-72.6-51.95v-223l-60-101.4v282.44l-73.2-50.92Z"/><path class="cls-2" d="M817.44,623.94h73.2V978.49l114.6-80.64v88.8L817.44,1119.1Z"/><path class="cls-2" d="M959.1,378.43,799.22,146.71,505.74,574.09,641,540.83l55.36-17.11,100.16,72.36,117.7-42.7L943,542.06l161.86,48.58Zm-17.38,143-35,13.75-107.5,39-99.67-72L635.22,522.1l-83.65,20.58L798.88,182.54l256.95,373.18Z"/></svg>