<svg id="Layer_3" data-name="Layer 3" xmlns="http://www.w3.org/2000/svg" viewBox="0 0 1500 1500"><defs><style>.cls-1{fill:#fffcf5;}</style></defs><path class="cls-1" d="M750,9.17,64.21,1007.83,750,1490.49l685.8-482.66ZM105.72,1000.36,750,62.16l644.28,938.2L750,1453.8Z"/><path class="cls-1" d="M750,97.49,133.4,995.38l616.6,434,616.6-434ZM161.08,990.41,750,132.82l588.92,857.59L750,1404.89Z"/><path class="cls-1" d="M244.43,1012.88l50.37-71.57-8.18-5.76-50.38,71.57-20.46-14.4L330.86,829.21l20.46,14.4L301,915.08l8.18,5.76,50.31-71.47L380,863.77,264.89,1027.29Z"/><path class="cls-1" d="M357.9,1092.75l14.41-20.47-8.19-5.76L349.72,1087l-20.47-14.41,97.87-139a28.77,28.77,0,0,1,19.34-12.21,29.17,29.17,0,0,1,22.43,5l24.56,17.29L378.37,1107.15ZM458.65,949.6l-4.09-2.88q-4.1-2.88-7,1.21l-69.07,98.13,8.19,5.76Z"/><path class="cls-1" d="M509.12,1162.45A30,30,0,1,1,460,1127.88l80.59-114.5a28.81,28.81,0,0,1,19.34-12.21,29.23,29.23,0,0,1,22.43,5A30.22,30.22,0,0,1,589.7,1048l-14.4,20.46L554.83,1054l14.35-20.38q2.87-4.08-1.23-7t-7,1.21l-80.52,114.41q-2.88,4.08,1.22,7t7-1.21l14.4-20.47,20.47,14.4Z"/><path class="cls-1" d="M581.76,1250.3l47.49-67.48q2.88-4.1-5.3-9.86l-50.37,71.58-20.47-14.41,115.08-163.51,20.47,14.4-50.31,71.48,4.1,2.88q4.08,2.88,7-1.21l47.42-67.39,20.47,14.41-44.55,63.29a23.47,23.47,0,0,1-13.41,9.51,18.14,18.14,0,0,1-16-2.57,18.27,18.27,0,0,1,7.88,14,23.5,23.5,0,0,1-4.43,15.84l-44.61,63.39Z"/><path class="cls-1" d="M866.91,1179.4,917.28,1251l-20.46,14.41L781.74,1101.86l49.11-34.57,14.4,20.47-28.65,20.16,35.9,51,28.65-20.16,14.41,20.46Z"/><path class="cls-1" d="M1008.24,1187l-47.5-67.48q-2.88-4.1-11.06,1.66l50.37,71.58-20.46,14.4L864.51,1043.61l24.55-17.29a30.23,30.23,0,0,1,41.77,7.18l27.33,38.83a23.44,23.44,0,0,1,4.43,15.84,18.09,18.09,0,0,1-7.8,14.15,18.25,18.25,0,0,1,15.88-2.67,23.48,23.48,0,0,1,13.42,9.52l44.61,63.39ZM910.37,1047.9q-2.88-4.1-7-1.21l-4.1,2.88,36,51.11,4.09-2.88q4.1-2.88,1.21-7Z"/><path class="cls-1" d="M1097.29,1087.56a30,30,0,1,1-49.12,34.57l-80.58-114.5a28.79,28.79,0,0,1-5-22.33,29.22,29.22,0,0,1,12.31-19.41,30.22,30.22,0,0,1,41.77,7.17Zm-101-100q-2.88-4.08-7-1.21t-1.21,7l80.52,114.41q2.88,4.1,7,1.21t1.22-7Z"/><path class="cls-1" d="M1183.17,1027.12a30,30,0,1,1-49.12,34.57l-14.4-20.47,20.47-14.4,14.4,20.47q2.88,4.08,7,1.21t1.21-7l-30.21-42.92q-2.88-4.1-7-1.21a30,30,0,0,1-41.84-7.28l-30.21-42.92a28.8,28.8,0,0,1-5-22.33,29.22,29.22,0,0,1,12.31-19.41,30.22,30.22,0,0,1,41.77,7.17L1117,933.09l-20.47,14.4-14.34-20.38q-2.88-4.08-7-1.2t-1.22,7l30.15,42.84q2.88,4.08,7,1.2A30.44,30.44,0,0,1,1153,984.2Z"/><path class="cls-1" d="M1168.28,860.41,1269,1003.46l-20.46,14.41-100.68-143-14.38,10.11L1119,864.47l49.11-34.57,14.41,20.47Z"/><path class="cls-1" d="M526.41,574.72H599l60.61,102v-102h72.59v495.16l-72.59-52v-223l-60-101.4V976L526.41,925Z"/><path class="cls-1" d="M768.21,574.72h73.2V929.26L956,848.63v88.8l-187.8,132.45Z"/><path class="cls-1" d="M909.88,329.21,750,97.49,456.51,524.87,591.72,491.6l55.36-17.1,100.17,72.36L865,504.16l28.8-11.32,161.86,48.58Zm-17.38,143L857.5,486,750,525l-99.67-72L586,472.88l-83.65,20.58L749.66,133.32l257,373.18Z"/></svg>